<?xml version="1.0" standalone="no"?>
<!DOCTYPE svg PUBLIC "-//W3C//DTD SVG 20010904//EN"
 "http://www.w3.org/TR/2001/REC-SVG-20010904/DTD/svg10.dtd">
<svg version="1.0" xmlns="http://www.w3.org/2000/svg"
 width="16.000000pt" height="16.000000pt" viewBox="0 0 16.000000 16.000000"
 preserveAspectRatio="xMidYMid meet">
<metadata>
Created by potrace 1.11, written by Peter Selinger 2001-2013
</metadata>
<g transform="translate(0.000000,16.000000) scale(0.001563,-0.001563)"
fill="#000000" stroke="none">
<path d="M2910 8188 c-42 -5 -479 -6 -1007 -2 l-933 6 0 -259 0 -260 92 -7
c50 -3 226 -6 391 -6 l300 0 -89 -92 c-174 -180 -295 -353 -413 -588 -490
-979 -325 -2208 399 -2973 604 -638 1477 -817 2245 -461 6 2 289 -275 630
-616 l620 -620 640 640 641 641 46 -20 c25 -11 89 -33 141 -50 366 -117 768
-114 1142 10 781 258 1354 1008 1481 1939 24 171 24 519 0 690 -42 309 -124
578 -257 842 -106 212 -238 401 -399 571 l-92 97 154 0 c85 0 257 3 381 7
l227 6 0 257 0 257 -1136 -3 c-1231 -4 -1213 -3 -1424 -60 -477 -129 -892
-440 -1193 -894 -136 -205 -289 -559 -338 -782 -7 -32 -15 -58 -19 -58 -3 0
-15 35 -24 78 -25 103 -77 254 -133 382 -231 524 -619 937 -1090 1157 -308
144 -676 208 -983 171z m428 -638 c511 -104 944 -523 1136 -1100 177 -532 140
-1104 -104 -1590 -273 -544 -755 -873 -1280 -873 -361 0 -678 139 -955 417
-146 147 -233 267 -325 449 -330 655 -284 1453 118 2057 83 125 268 321 376
400 191 139 421 232 637 260 105 13 280 4 397 -20z m4060 5 c492 -94 918 -491
1117 -1040 185 -511 158 -1091 -75 -1573 -339 -702 -1010 -1034 -1661 -822
-504 165 -909 669 -1034 1285 -160 790 160 1615 770 1985 139 84 311 148 455
169 41 6 86 13 100 15 47 8 245 -3 328 -19z"/>
<path d="M2981 6779 c-334 -39 -618 -243 -765 -550 -74 -152 -89 -225 -89
-419 0 -197 15 -269 92 -425 86 -175 206 -308 366 -406 158 -98 314 -141 510
-141 196 0 352 43 510 141 160 98 280 231 366 406 77 156 92 228 92 425 0 138
-3 178 -21 244 -12 44 -24 81 -26 84 -3 2 -34 -25 -69 -60 -40 -40 -88 -76
-129 -96 l-65 -32 9 -57 c18 -110 -8 -266 -63 -377 -81 -163 -214 -280 -391
-344 -66 -24 -86 -27 -213 -27 -127 0 -147 3 -213 27 -107 39 -177 83 -262
168 -132 131 -194 281 -194 470 0 202 73 367 224 502 102 93 277 168 390 168
37 0 37 0 50 57 16 76 43 136 85 193 l35 47 -53 7 c-60 7 -76 6 -176 -5z"/>
<path d="M7101 6779 c-334 -39 -618 -243 -765 -550 -74 -152 -89 -225 -89
-419 0 -197 15 -269 92 -425 86 -175 206 -308 366 -406 158 -98 314 -141 510
-141 196 0 352 43 510 141 160 98 280 231 366 406 77 156 92 228 92 425 0 138
-3 178 -21 244 -12 44 -24 81 -26 84 -3 2 -34 -25 -69 -60 -40 -40 -88 -76
-129 -96 l-65 -32 9 -57 c18 -110 -8 -266 -63 -377 -81 -163 -214 -280 -391
-344 -66 -24 -86 -27 -213 -27 -127 0 -147 3 -213 27 -107 39 -177 83 -262
168 -132 131 -194 281 -194 470 0 202 73 367 224 502 102 93 277 168 390 168
37 0 37 0 50 57 16 76 43 136 85 193 l35 47 -53 7 c-60 7 -76 6 -176 -5z"/>
</g>
</svg>
